<svg width="4002" height="4002" viewBox="0 0 4002 4002" fill="none" xmlns="http://www.w3.org/2000/svg">
<g clip-path="url(#clip0_2008_3)">
<path d="M1981.55 1529.22C1972.33 1529.22 1962.98 1528.41 1953.59 1526.73C1867.64 1511.39 1810.4 1429.28 1825.74 1343.31C1888.43 992.19 2146.97 502.537 2471.12 290.906C2544.24 243.201 2642.2 263.733 2689.93 336.853C2737.67 409.952 2717.09 507.932 2643.99 555.667C2402.64 713.22 2187 1118.86 2137.01 1398.87C2123.35 1475.43 2056.69 1529.22 1981.55 1529.22Z" fill="#65513C" stroke="black" stroke-width="0.0040502"/>
<path opacity="0.3" d="M2689.93 336.863C2381.42 484.554 1981.38 1017.15 1953.59 1526.73C1962.98 1528.41 1972.33 1529.22 1981.55 1529.22C2056.69 1529.22 2123.35 1475.44 2137 1398.88C2186.99 1118.87 2402.63 713.23 2643.98 555.677C2717.08 507.942 2737.67 409.962 2689.93 336.863Z" fill="#65513C" stroke="black" stroke-width="0.0040502"/>
<path d="M1913.59 1163.71C2080.56 1077.6 2071.38 819.292 1940.64 565.756C1775.63 245.77 1313.55 0 1313.55 0C1313.55 0 1245.79 518.96 1410.8 838.995C1541.52 1092.52 1746.58 1249.81 1913.59 1163.71Z" fill="#218649" stroke="black" stroke-width="0.0040502"/>
<path opacity="0.5" d="M1313.55 0C1313.55 0 1245.79 518.96 1410.8 838.995C1541.52 1092.52 1746.58 1249.81 1913.6 1163.71L1313.55 0Z" fill="#218649" stroke="black" stroke-width="0.0040502"/>
<path d="M1619.82 1017.54V1017.68C1486.08 929.367 1325.93 877.847 1153.69 877.847C685.741 877.847 306.37 1257.21 306.37 1725.16C306.37 2273.19 703.171 3570.26 1043 3848.97C1137.59 3943.51 1268.26 4001.99 1412.54 4001.99C1524.66 4001.99 1628.45 3966.56 1713.57 3906.48L1713.65 3906.6C1792.36 3855.33 1929.52 3834.09 2001 3834.09V1139.23C1937.24 1139.23 1749.65 1097.95 1619.82 1017.54Z" fill="#FF5959" stroke="black" stroke-width="0.0040502"/>
<path opacity="0.2" d="M417.462 2439.91C559.402 3011.57 814.115 3661.25 1043 3848.98C1137.59 3943.52 1268.26 4002 1412.54 4002C1524.66 4002 1628.45 3966.57 1713.57 3906.49L1713.65 3906.61C1792.36 3855.34 1929.52 3834.1 2001 3834.1V2439.91H417.462Z" fill="#FF5959" stroke="black" stroke-width="0.0040502"/>
<path d="M2288.36 3906.45C2373.48 3966.57 2477.29 4002 2589.46 4002C2733.74 4002 2864.39 3943.52 2958.99 3848.98C3298.83 3570.27 3695.63 2273.19 3695.63 1725.17C3695.63 1257.22 3316.27 877.857 2848.31 877.857C2676.07 877.857 2515.92 929.387 2382.18 1017.69V1017.55C2252.34 1097.96 2064.76 1139.23 2001 1139.23V3834.09C2072.48 3834.09 2209.63 3855.32 2288.35 3906.6L2288.36 3906.45Z" fill="#FF5959" stroke="black" stroke-width="0.0040502"/>
<path opacity="0.1" d="M2001 2439.91V3834.1C2072.48 3834.1 2209.63 3855.33 2288.35 3906.61L2288.36 3906.45C2373.48 3966.57 2477.29 4002 2589.46 4002C2733.74 4002 2864.39 3943.52 2958.99 3848.98C3187.88 3661.26 3442.59 3011.57 3584.53 2439.91H2001Z" fill="#65513C" stroke="black" stroke-width="0.0040502"/>
<path opacity="0.2" d="M2001 1139.23V3834.09C2034.79 3834.09 2083.29 3838.91 2133.34 3849.34V1117.56C2076.37 1131.94 2027.76 1139.23 2001 1139.23Z" fill="#FF5959" stroke="black" stroke-width="0.0040502"/>
<path d="M2353.19 2472.78C2341.7 2422.85 2267.24 2284.41 2217.31 2295.89C2167.43 2307.39 2160.98 2464.49 2172.47 2514.37C2183.97 2564.25 2233.72 2595.4 2283.63 2583.92C2333.53 2572.46 2364.68 2522.69 2353.19 2472.78Z" fill="#FF5959" stroke="black" stroke-width="0.0040502"/>
<path d="M2802 2117L2403 2516L2251 2364" stroke="#218649" stroke-width="128" stroke-linecap="round" stroke-linejoin="round"/>
<path d="M3341.36 2012.75L3769 1585L3061.72 1733L3341.36 2012.75Z" fill="#218649"/>
<path d="M3597.9 2269.4L3769 1585L3341.36 2012.75L3597.9 2269.4Z" fill="#218649"/>
<path d="M690 3296L1716.33 2269.4L2400.56 2953.8L3341.36 2012.75M3769 1585L3597.9 2269.4L3341.36 2012.75M3769 1585L3061.72 1733L3341.36 2012.75M3769 1585L3341.36 2012.75" stroke="#218649" stroke-width="256" stroke-linecap="round" stroke-linejoin="round"/>
</g>
<defs>
<clipPath id="clip0_2008_3">
<rect width="4002" height="4002" fill="white"/>
</clipPath>
</defs>
</svg>
